<svg  id="visual" viewBox="0 0 900 600" width="900" height="600" xmlns="http://www.w3.org/2000/svg" xmlns:xlink="http://www.w3.org/1999/xlink" version="1.1"><g transform="translate(458.288502407732 289.84532330203666)"><path d="M130.2 -196.4C175.7 -173.3 224.3 -149 249.5 -109.4C274.6 -69.8 276.4 -14.9 261 32C245.6 78.8 213.1 117.7 180.9 159C148.6 200.3 116.6 244.1 70.2 273.3C23.9 302.6 -36.8 317.3 -87.3 300.8C-137.8 284.4 -178.1 236.8 -192.8 185.9C-207.5 135.1 -196.5 80.9 -215.8 23.9C-235 -33 -284.4 -92.7 -287.3 -149.8C-290.1 -206.8 -246.4 -261.1 -190.8 -279.6C-135.2 -298 -67.6 -280.5 -12.6 -260.9C42.4 -241.2 84.7 -219.5 130.2 -196.4" fill="#F4B400"></path></g></svg>