<svg id="visual" viewBox="0 0 900 600" width="900" height="600" xmlns="http://www.w3.org/2000/svg" xmlns:xlink="http://www.w3.org/1999/xlink" version="1.1"><rect x="0" y="0" width="900" height="600" fill="#4B0082"></rect><path d="M0 492L12.5 489.2C25 486.3 50 480.7 75 478C100 475.3 125 475.7 150 480.3C175 485 200 494 225 493.2C250 492.3 275 481.7 300 478C325 474.3 350 477.7 375 475.2C400 472.7 425 464.3 450 466.5C475 468.7 500 481.3 525 491C550 500.7 575 507.3 600 506.5C625 505.7 650 497.3 675 493.8C700 490.3 725 491.7 750 489.3C775 487 800 481 825 474.5C850 468 875 461 887.5 457.5L900 454L900 601L887.5 601C875 601 850 601 825 601C800 601 775 601 750 601C725 601 700 601 675 601C650 601 625 601 600 601C575 601 550 601 525 601C500 601 475 601 450 601C425 601 400 601 375 601C350 601 325 601 300 601C275 601 250 601 225 601C200 601 175 601 150 601C125 601 100 601 75 601C50 601 25 601 12.5 601L0 601Z" fill="#ffb733"></path><path d="M0 529L12.5 530.8C25 532.7 50 536.3 75 539.2C100 542 125 544 150 538.3C175 532.7 200 519.3 225 516.3C250 513.3 275 520.7 300 523.7C325 526.7 350 525.3 375 524.8C400 524.3 425 524.7 450 523C475 521.3 500 517.7 525 515.2C550 512.7 575 511.3 600 515.2C625 519 650 528 675 527C700 526 725 515 750 515C775 515 800 526 825 527.3C850 528.7 875 520.3 887.5 516.2L900 512L900 601L887.5 601C875 601 850 601 825 601C800 601 775 601 750 601C725 601 700 601 675 601C650 601 625 601 600 601C575 601 550 601 525 601C500 601 475 601 450 601C425 601 400 601 375 601C350 601 325 601 300 601C275 601 250 601 225 601C200 601 175 601 150 601C125 601 100 601 75 601C50 601 25 601 12.5 601L0 601Z" fill="#ffae20"></path><path d="M0 562L12.5 561.8C25 561.7 50 561.3 75 562.8C100 564.3 125 567.7 150 565.7C175 563.7 200 556.3 225 557C250 557.7 275 566.3 300 566.2C325 566 350 557 375 555C400 553 425 558 450 560.8C475 563.7 500 564.3 525 565.2C550 566 575 567 600 563.8C625 560.7 650 553.3 675 548.8C700 544.3 725 542.7 750 544.2C775 545.7 800 550.3 825 553C850 555.7 875 556.3 887.5 556.7L900 557L900 601L887.5 601C875 601 850 601 825 601C800 601 775 601 750 601C725 601 700 601 675 601C650 601 625 601 600 601C575 601 550 601 525 601C500 601 475 601 450 601C425 601 400 601 375 601C350 601 325 601 300 601C275 601 250 601 225 601C200 601 175 601 150 601C125 601 100 601 75 601C50 601 25 601 12.5 601L0 601Z" fill="#ffa500"></path></svg>