<svg id="visual" viewBox="0 0 900 600" width="900" height="600" xmlns="http://www.w3.org/2000/svg" xmlns:xlink="http://www.w3.org/1999/xlink" version="1.1"><rect x="0" y="0" width="900" height="600" fill="#4B0082"></rect><path d="M0 465L21.5 475.5C43 486 86 507 128.8 514.8C171.7 522.7 214.3 517.3 257.2 510.7C300 504 343 496 385.8 482C428.7 468 471.3 448 514.2 454C557 460 600 492 642.8 505.7C685.7 519.3 728.3 514.7 771.2 506C814 497.3 857 484.7 878.5 478.3L900 472L900 601L878.5 601C857 601 814 601 771.2 601C728.3 601 685.7 601 642.8 601C600 601 557 601 514.2 601C471.3 601 428.7 601 385.8 601C343 601 300 601 257.2 601C214.3 601 171.7 601 128.8 601C86 601 43 601 21.5 601L0 601Z" fill="#ff8c00"></path><path d="M0 528L21.5 520.8C43 513.7 86 499.3 128.8 488.5C171.7 477.7 214.3 470.3 257.2 480C300 489.7 343 516.3 385.8 527.7C428.7 539 471.3 535 514.2 524.2C557 513.3 600 495.7 642.8 497.7C685.7 499.7 728.3 521.3 771.2 523.3C814 525.3 857 507.7 878.5 498.8L900 490L900 601L878.5 601C857 601 814 601 771.2 601C728.3 601 685.7 601 642.8 601C600 601 557 601 514.2 601C471.3 601 428.7 601 385.8 601C343 601 300 601 257.2 601C214.3 601 171.7 601 128.8 601C86 601 43 601 21.5 601L0 601Z" fill="#ff9500"></path><path d="M0 551L21.5 544.8C43 538.7 86 526.3 128.8 523.8C171.7 521.3 214.3 528.7 257.2 528.7C300 528.7 343 521.3 385.8 523.3C428.7 525.3 471.3 536.7 514.2 535.7C557 534.7 600 521.3 642.8 521.7C685.7 522 728.3 536 771.2 535.5C814 535 857 520 878.5 512.5L900 505L900 601L878.5 601C857 601 814 601 771.2 601C728.3 601 685.7 601 642.8 601C600 601 557 601 514.2 601C471.3 601 428.7 601 385.8 601C343 601 300 601 257.2 601C214.3 601 171.7 601 128.8 601C86 601 43 601 21.5 601L0 601Z" fill="#ff9d00"></path><path d="M0 547L21.5 545.5C43 544 86 541 128.8 543.5C171.7 546 214.3 554 257.2 561.2C300 568.3 343 574.7 385.8 570.8C428.7 567 471.3 553 514.2 548.8C557 544.7 600 550.3 642.8 559C685.7 567.7 728.3 579.3 771.2 583.2C814 587 857 583 878.5 581L900 579L900 601L878.5 601C857 601 814 601 771.2 601C728.3 601 685.7 601 642.8 601C600 601 557 601 514.2 601C471.3 601 428.7 601 385.8 601C343 601 300 601 257.2 601C214.3 601 171.7 601 128.8 601C86 601 43 601 21.5 601L0 601Z" fill="#ffa500"></path></svg>